<?xml version="1.0" encoding="UTF-8"?><svg id="uuid-595a886d-5977-46d8-b188-0ae8849b954d" xmlns="http://www.w3.org/2000/svg" viewBox="0 0 326 325"><defs><style>.uuid-424c9615-4815-4499-878c-741511fc7e33{fill:#e85760;}.uuid-ecce153f-f928-4768-a2ba-85efaa8d534f{stroke:#e85760;stroke-miterlimit:10;}.uuid-ecce153f-f928-4768-a2ba-85efaa8d534f,.uuid-c087f06f-1c67-4d4b-ab96-6aa4a11e7879{fill:none;}.uuid-c087f06f-1c67-4d4b-ab96-6aa4a11e7879{stroke:#fbd9db;stroke-linecap:round;stroke-linejoin:round;stroke-width:1.76px;}</style></defs><path class="uuid-424c9615-4815-4499-878c-741511fc7e33" d="m163.5,3c42.6,0,82.66,16.59,112.78,46.72,30.13,30.13,46.72,70.18,46.72,112.78s-16.59,82.66-46.72,112.78c-30.13,30.13-70.18,46.72-112.78,46.72s-82.66-16.59-112.78-46.72C20.59,245.16,4,205.1,4,162.5S20.59,79.84,50.72,49.72C80.84,19.59,120.9,3,163.5,3m0-3C73.75,0,1,72.75,1,162.5s72.75,162.5,162.5,162.5,162.5-72.75,162.5-162.5S253.25,0,163.5,0h0Z"/><g id="uuid-7ff2b6b0-74c2-4cfb-96ae-71f3b192c57a"><path class="uuid-ecce153f-f928-4768-a2ba-85efaa8d534f" d="m191.15,104.13h-26.49c-.06.97-.12,1.92-.17,2.88-.25,4.61-3.56,7.89-8.05,7.95-4.34.06-7.86-3.39-8.07-7.93-.04-.9,0-1.8,0-2.84h-26.76c.02,3.42-.14,6.9-3.28,8.96-1.46.96-3.37,1.68-5.09,1.73-4.84.14-7.13-2.99-8.18-10.69-4.87,0-9.78-.21-14.66.08-2.79.17-4.69,2.55-5.11,5.42-.14.99-.12,2-.12,3,0,34.87,0,69.75,0,104.62,0,6.15,2.16,8.31,8.29,8.31,28.77,0,57.54.02,86.31-.04,1.83,0,2.81.49,3.65,2.15,1.27,2.5,2.91,4.8,4.57,7.47-2.15,0-4.12,0-6.09,0-29.69,0-59.38-.02-89.07.03-5.7,0-10.5-1.67-14.03-6.35-2.09-2.77-3.14-5.91-3.14-9.34-.02-36.46-.05-72.93.02-109.39.02-8.71,6.73-15.38,15.41-15.62,3.76-.1,7.53-.02,11.29-.04.9,0,1.79-.08,2.64-.12,1.11-7.54,3.6-10.51,8.56-10.4,4.8.1,7.26,3.14,8.18,10.29h26.55c-.18-3.54.33-7.1,3.82-8.98,1.53-.82,3.5-1.27,5.24-1.19,4.44.21,6.51,3.22,7.33,10.19.66.06,1.38.19,2.1.19,7.36.02,14.72-.02,22.08.04,1.68.01,2.53-.22,2.58-2.27.12-5.09,3.46-8.32,8.15-8.27,4.51.05,7.71,3.36,7.98,8.25.04.65.11,1.29.2,2.26,4.51,0,8.92-.04,13.33,0,7.83.09,14.03,4.94,15.7,12.23.19.81.33,1.65.33,2.48.02,18.81.01,37.63.01,57.07-1.89-1.84-3.27-3.63-5.05-4.81-3.85-2.57-4.65-5.98-4.55-10.44.3-12.96.12-25.92.11-38.89,0-5.89-2.31-8.16-8.22-8.14-3.83.01-7.67,0-11.77,0-.05,3.62-.06,7.25-3.44,9.26-1.51.9-3.41,1.62-5.13,1.6-4.85-.05-6.98-3.05-7.97-10.74Z"/><path class="uuid-424c9615-4815-4499-878c-741511fc7e33" d="m221.41,238.02c-22.14.17-35.45-19.44-28.26-38.42,4.34-11.47,12.25-20.37,21.15-28.46,4.66-4.23,4.74-4.15,9.4.05,7.66,6.9,14.41,14.55,19.09,23.83,4.59,9.1,5.82,18.42.95,27.78-5.14,9.89-13.57,14.73-22.34,15.21Z"/><path class="uuid-ecce153f-f928-4768-a2ba-85efaa8d534f" d="m173.33,129.68c2.84,0,5.69-.05,8.53.01,2.43.05,3.5,1.12,3.53,3.57.05,5.02.05,10.03,0,15.05-.02,2.55-1.15,3.7-3.68,3.73-5.69.05-11.37.06-17.06,0-2.51-.02-3.64-1.2-3.66-3.75-.04-5.02-.05-10.03,0-15.05.02-2.4,1.16-3.51,3.56-3.55,2.93-.05,5.85-.01,8.78-.01Z"/><path class="uuid-ecce153f-f928-4768-a2ba-85efaa8d534f" d="m141.06,129.67c2.76,0,5.51-.03,8.27,0,2.66.03,3.8,1.12,3.83,3.82.05,4.93.06,9.86,0,14.79-.04,2.55-1.17,3.72-3.7,3.75-5.68.07-11.36.07-17.04,0-2.55-.03-3.62-1.15-3.64-3.74-.04-5.01-.04-10.03.01-15.04.03-2.49,1.05-3.51,3.51-3.56,2.92-.06,5.85-.01,8.77-.01h0Z"/><path class="uuid-ecce153f-f928-4768-a2ba-85efaa8d534f" d="m140.83,214.01c-2.84,0-5.68.04-8.52-.01-2.44-.05-3.51-1.1-3.53-3.53-.05-5.1-.05-10.19.01-15.29.03-2.41,1.11-3.5,3.58-3.53,5.68-.06,11.36-.03,17.05-.02,2.3,0,3.69,1.16,3.72,3.48.08,5.18.09,10.36,0,15.54-.04,2.17-1.31,3.35-3.54,3.35-2.92,0-5.85,0-8.77,0h0Z"/><path class="uuid-ecce153f-f928-4768-a2ba-85efaa8d534f" d="m108.48,214.01c-2.76,0-5.51.03-8.27,0-2.68-.04-3.76-1.16-3.78-3.86-.03-4.68-.04-9.36-.01-14.03.02-3.53.98-4.47,4.49-4.48,5.1-.02,10.19-.03,15.29-.02,3.71,0,4.62.92,4.62,4.56,0,4.68.02,9.36-.02,14.03-.02,2.74-1.03,3.74-3.8,3.79-2.84.05-5.68.01-8.52.02Z"/><path class="uuid-ecce153f-f928-4768-a2ba-85efaa8d534f" d="m173.16,160.67c2.84,0,5.68-.06,8.52.02,2.63.07,3.69,1.12,3.72,3.66.05,5.01,0,10.03,0,15.04,0,2.38-1.24,3.59-3.54,3.61-5.77.05-11.53.05-17.3.02-2.31,0-3.58-1.19-3.59-3.56-.01-5.01-.05-10.03,0-15.04.03-2.69,1.13-3.71,3.89-3.76,2.76-.05,5.52-.01,8.27-.01,0,0,0,.01,0,.02Z"/></g><path class="uuid-424c9615-4815-4499-878c-741511fc7e33" d="m100.58,166.6c0-1,.32-2.01.96-3.04s1.58-1.88,2.81-2.55,2.67-1.01,4.31-1.01c1.53,0,2.87.28,4.04.84s2.07,1.33,2.71,2.3.95,2.02.95,3.16c0,.89-.18,1.68-.54,2.35s-.79,1.25-1.29,1.74-1.4,1.31-2.69,2.47c-.36.33-.64.61-.86.86s-.38.47-.48.68-.19.41-.24.62-.14.57-.26,1.08c-.2,1.09-.83,1.64-1.88,1.64-.55,0-1.01-.18-1.38-.54s-.56-.89-.56-1.59c0-.88.14-1.65.41-2.3s.64-1.22,1.09-1.7,1.06-1.07,1.83-1.74c.67-.59,1.16-1.03,1.46-1.33s.55-.63.76-1,.31-.77.31-1.2c0-.84-.31-1.55-.94-2.13s-1.43-.87-2.42-.87c-1.16,0-2.01.29-2.56.88s-1.01,1.44-1.39,2.58c-.36,1.19-1.04,1.78-2.04,1.78-.59,0-1.09-.21-1.49-.62s-.61-.87-.61-1.35Zm7.7,17.3c-.64,0-1.2-.21-1.68-.62s-.72-1-.72-1.74c0-.66.23-1.22.69-1.67s1.03-.68,1.7-.68,1.22.23,1.67.68.68,1.01.68,1.67c0,.74-.24,1.32-.71,1.74s-1.02.63-1.64.63Z"/><path class="uuid-424c9615-4815-4499-878c-741511fc7e33" d="m197.58,135.6c0-1,.32-2.01.96-3.04s1.58-1.88,2.81-2.55,2.67-1.01,4.31-1.01c1.53,0,2.87.28,4.04.84s2.07,1.33,2.71,2.3.95,2.02.95,3.16c0,.89-.18,1.68-.54,2.35s-.79,1.25-1.29,1.74-1.4,1.31-2.69,2.47c-.36.33-.64.61-.86.86s-.38.47-.48.68-.19.41-.24.62-.14.57-.26,1.08c-.2,1.09-.83,1.64-1.88,1.64-.55,0-1.01-.18-1.38-.54s-.56-.89-.56-1.59c0-.88.14-1.65.41-2.3s.64-1.22,1.09-1.7,1.06-1.07,1.83-1.74c.67-.59,1.16-1.03,1.46-1.33s.55-.63.76-1,.31-.77.31-1.2c0-.84-.31-1.55-.94-2.13s-1.43-.87-2.42-.87c-1.16,0-2.01.29-2.56.88s-1.01,1.44-1.39,2.58c-.36,1.19-1.04,1.78-2.04,1.78-.59,0-1.09-.21-1.49-.62s-.61-.87-.61-1.35Zm7.7,17.3c-.64,0-1.2-.21-1.68-.62s-.72-1-.72-1.74c0-.66.23-1.22.69-1.67s1.03-.68,1.7-.68,1.22.23,1.67.68.68,1.01.68,1.67c0,.74-.24,1.32-.71,1.74s-1.02.63-1.64.63Z"/><path class="uuid-424c9615-4815-4499-878c-741511fc7e33" d="m132.58,166.6c0-1,.32-2.01.96-3.04s1.58-1.88,2.81-2.55,2.67-1.01,4.31-1.01c1.53,0,2.87.28,4.04.84s2.07,1.33,2.71,2.3.95,2.02.95,3.16c0,.89-.18,1.68-.54,2.35s-.79,1.25-1.29,1.74-1.4,1.31-2.69,2.47c-.36.33-.64.61-.86.86s-.38.47-.48.68-.19.41-.24.62-.14.57-.26,1.08c-.2,1.09-.83,1.64-1.88,1.64-.55,0-1.01-.18-1.38-.54s-.56-.89-.56-1.59c0-.88.14-1.65.41-2.3s.64-1.22,1.09-1.7,1.06-1.07,1.83-1.74c.67-.59,1.16-1.03,1.46-1.33s.55-.63.76-1,.31-.77.31-1.2c0-.84-.31-1.55-.94-2.13s-1.43-.87-2.42-.87c-1.16,0-2.01.29-2.56.88s-1.01,1.44-1.39,2.58c-.36,1.19-1.04,1.78-2.04,1.78-.59,0-1.09-.21-1.49-.62s-.61-.87-.61-1.35Zm7.7,17.3c-.64,0-1.2-.21-1.68-.62s-.72-1-.72-1.74c0-.66.23-1.22.69-1.67s1.03-.68,1.7-.68,1.22.23,1.67.68.68,1.01.68,1.67c0,.74-.24,1.32-.71,1.74s-1.02.63-1.64.63Z"/><path class="uuid-c087f06f-1c67-4d4b-ab96-6aa4a11e7879" d="m232.45,227.43s11.46-7.05,8.81-17.63"/></svg>